<?xml version="1.0" encoding="UTF-8" standalone="no"?>
<svg
   xmlns:dc="http://purl.org/dc/elements/1.1/"
   xmlns:cc="http://creativecommons.org/ns#"
   xmlns:rdf="http://www.w3.org/1999/02/22-rdf-syntax-ns#"
   xmlns:svg="http://www.w3.org/2000/svg"
   xmlns="http://www.w3.org/2000/svg"
   viewBox="0 0 1000 1000"
   height="1000"
   width="1000"
   id="svg64"
   version="1.1">
  <metadata
     id="metadata70">
    <rdf:RDF>
      <cc:Work
         rdf:about="">
        <dc:format>image/svg+xml</dc:format>
        <dc:type
           rdf:resource="http://purl.org/dc/dcmitype/StillImage" />
        <dc:title></dc:title>
      </cc:Work>
    </rdf:RDF>
  </metadata>
  <defs
     id="defs68" />
  <g
     id="g4591">
    <rect
       id="rect92"
       width="677.53204"
       height="677.53204"
       x="160.65192"
       y="168.80093"
       style="fill:#ffffff" />
    <path
       style="fill:#983200"
       d="m 497.94385,980.58154 c -3.30373,-3.1521 -31.64078,-19.3431 -47.44385,-27.10809 -53.10457,-26.09343 -103.96015,-39.82867 -198,-53.47647 -68.88629,-9.99732 -91.51979,-15.27384 -113,-26.34354 -18.85201,-9.71527 -30.70611,-24.43857 -34.90285,-43.35085 -2.01872,-9.09716 -2.09814,-29.1949 -0.16671,-42.18326 0.78674,-5.29063 1.68309,-18.39433 1.99189,-29.11933 0.91831,-31.89407 3.83155,-54.70718 16.09024,-126 C 138.25059,541.47241 142.7314,502.84685 145.16393,437.74009 146.85249,392.54606 144.84043,339.51786 139.44438,287 132.33672,217.82365 116.5702,132.41702 96.470837,54.21394 90.442292,30.757935 90.629699,31.653107 91.913804,32.446728 93.499124,33.42651 135.84732,43.765414 151.5,46.994125 c 54.687,11.280401 102.22352,16.370612 153,16.383244 58.45146,0.01454 104.26839,-6.639452 146.69555,-21.304593 19.16657,-6.625011 45.38761,-19.1306 46.63778,-22.242934 0.43232,-1.076251 2.90102,-1.076251 3.33334,0 1.25017,3.112334 27.47121,15.617923 46.63778,22.242934 42.42716,14.665141 88.24409,21.319133 146.69555,21.304593 50.77648,-0.01263 98.313,-5.102843 153,-16.383244 15.65268,-3.228711 58.00088,-13.567615 59.5862,-14.547397 1.2841,-0.793621 1.47151,-1.688793 -4.55704,21.767212 -35.88018,139.60346 -52.82119,273.03762 -48.69309,383.52615 2.43253,65.10676 6.91334,103.73232 22.65136,195.25991 12.25869,71.29282 15.17193,94.10593 16.09024,126 0.3088,10.725 1.20515,23.8287 1.99189,29.11933 1.93143,12.98836 1.85201,33.0861 -0.16671,42.18326 -4.19674,18.91228 -16.05084,33.63558 -34.90285,43.35085 -21.48021,11.0697 -44.11371,16.34622 -113,26.34354 -94.03985,13.6478 -144.89543,27.38304 -198,53.47647 -15.33557,7.53528 -43.61119,23.66054 -47.55615,27.12074 -1.31526,1.15363 -1.77967,1.15167 -3,-0.0127 z M 563.001,613.50297 500.00001,550.50198 437.25199,613.25 l -62.74802,62.74802 62.99505,63.001 62.99505,63.001 62.75396,-62.74803 62.75396,-62.74803 z m -188,-345 -63.00099,-63.00099 -62.74802,62.74802 -62.74802,62.74802 62.99505,63.001 62.99505,63.001 62.75396,-62.74803 62.75396,-62.74803 z m 375,0 -63.00099,-63.00099 -62.74802,62.74802 -62.74802,62.74802 62.99505,63.001 62.99505,63.001 62.75396,-62.74803 62.75396,-62.74803 z"
       id="path90" />
  </g>
</svg>
